<svg width="390" height="844" viewBox="0 0 390 844" fill="none" xmlns="http://www.w3.org/2000/svg">
<path opacity="0.64" fill-rule="evenodd" clip-rule="evenodd" d="M390 0H0V844H390V0ZM91 211C84.9249 211 80 215.925 80 222V429C80 435.075 84.9249 440 91 440H298C304.075 440 309 435.075 309 429V222C309 215.925 304.075 211 298 211H91Z" fill="black" fill-opacity="0.92"/>
<path d="M80.3747 261.417V224.799C80.1387 221.439 81.1794 218.114 83.2914 215.478C84.5559 214.092 86.113 213 87.8516 212.281C89.5903 211.562 91.4675 211.233 93.349 211.317H132.104C132.411 211.317 132.705 211.196 132.922 210.981C133.139 210.766 133.261 210.473 133.261 210.169C133.261 209.864 133.139 209.572 132.922 209.357C132.705 209.141 132.411 209.02 132.104 209.02H93.8184C90.5761 208.859 87.3592 209.664 84.5821 211.334C82.5861 212.654 80.9464 214.439 79.8067 216.534C78.6669 218.629 78.062 220.97 78.0447 223.351C77.9441 229.376 78.0447 235.418 78.0447 241.427V261.4C78.0789 261.683 78.2164 261.944 78.4311 262.133C78.6458 262.322 78.9228 262.426 79.2097 262.426C79.4967 262.426 79.7737 262.322 79.9884 262.133C80.203 261.944 80.3405 261.683 80.3747 261.4V261.417Z" fill="#0D5BB2"/>
<path d="M130.789 439.659H93.911C90.5283 439.885 87.1819 438.852 84.5239 436.763C83.1298 435.506 82.0315 433.959 81.3073 432.233C80.583 430.507 80.2504 428.644 80.3332 426.776V388.244C80.3332 387.94 80.2114 387.647 79.9945 387.432C79.7776 387.217 79.4834 387.096 79.1766 387.096C78.8699 387.096 78.5757 387.217 78.3587 387.432C78.1418 387.647 78.02 387.94 78.02 388.244V426.31C77.8593 429.529 78.6706 432.723 80.35 435.481C81.679 437.462 83.4776 439.088 85.588 440.217C87.6983 441.346 90.0556 441.943 92.4527 441.956C98.5208 442.055 104.589 441.956 110.657 441.956H130.772C131.079 441.956 131.373 441.835 131.59 441.619C131.807 441.404 131.929 441.112 131.929 440.807C131.929 440.503 131.807 440.21 131.59 439.995C131.373 439.78 131.079 439.659 130.772 439.659H130.789Z" fill="#0D5BB2"/>
<path d="M257.943 439.659H294.821C298.204 439.885 301.55 438.852 304.209 436.763C305.603 435.506 306.701 433.959 307.425 432.233C308.149 430.507 308.482 428.644 308.399 426.776V388.244C308.399 387.94 308.521 387.647 308.738 387.432C308.955 387.217 309.249 387.096 309.556 387.096C309.863 387.096 310.157 387.217 310.374 387.432C310.591 387.647 310.712 387.94 310.712 388.244V426.31C310.873 429.529 310.062 432.723 308.382 435.481C307.053 437.462 305.255 439.088 303.144 440.217C301.034 441.346 298.677 441.943 296.28 441.956C290.212 442.055 284.144 441.956 278.075 441.956H257.96C257.654 441.956 257.359 441.835 257.142 441.619C256.925 441.404 256.804 441.112 256.804 440.807C256.804 440.503 256.925 440.21 257.142 439.995C257.359 439.78 257.654 439.659 257.96 439.659H257.943Z" fill="#0D5BB2"/>
<path d="M258.21 211.341H295.088C298.474 211.112 301.823 212.151 304.475 214.254C305.876 215.506 306.979 217.051 307.703 218.779C308.428 220.506 308.757 222.372 308.666 224.241V262.822C308.666 263.127 308.788 263.419 309.005 263.634C309.222 263.85 309.516 263.971 309.822 263.971C310.129 263.971 310.423 263.85 310.64 263.634C310.857 263.419 310.979 263.127 310.979 262.822V224.707C311.142 221.482 310.331 218.283 308.649 215.519C307.32 213.538 305.521 211.912 303.411 210.783C301.301 209.654 298.944 209.057 296.546 209.044C290.478 208.945 284.41 209.044 278.342 209.044H258.227C257.92 209.044 257.626 209.165 257.409 209.381C257.192 209.596 257.07 209.888 257.07 210.193C257.07 210.497 257.192 210.79 257.409 211.005C257.626 211.22 257.92 211.341 258.227 211.341H258.21Z" fill="#0D5BB2"/>
</svg>
